<svg width="8" height="9" viewBox="0 0 8 9" fill="none" xmlns="http://www.w3.org/2000/svg">
<path fill-rule="evenodd" clip-rule="evenodd" d="M7.73413 0.229003C7.44696 -0.0590359 7.00066 -0.0777051 6.7375 0.18633L3.8285 3.10583L1.13183 0.229008C0.870451 -0.0332497 0.490457 -0.0563639 0.205959 0.229008C-0.0785388 0.515268 -0.0553104 0.966849 0.206072 1.22911L2.79809 4.14064L0.206113 6.7801C-0.0570473 7.04414 -0.0802202 7.48508 0.206056 7.77312C0.493221 8.06116 0.868693 8.07894 1.13185 7.81491L3.8365 5.18344L6.45833 7.81491C6.71971 8.07716 7.16246 8.05849 7.44696 7.77312C7.73235 7.48686 7.75102 7.04325 7.48964 6.7801L4.86781 4.14864L7.7768 1.22914C8.03996 0.965101 8.02129 0.517041 7.73413 0.229003Z" transform="translate(0.0375977)" fill="#CCD6DD"/>
</svg>
